# xmcd CD database file
# Copyright (C) 1993-1998 Ti Kan
#
# Track frame offsets:
# 150
# 15082
# 26910
# 40447
# 54772
# 69502
# 85202
# 100535
# 113700
# 128642
#
# Disc length: 1903 seconds
# Revision: 0
# Processed by: cddbd v1.4b41PL1 Copyright (c) Steve Scherf et al.
# Submitted via: CDSpectrumPro v3.3.334
#
DISCID=6f076d0a
DTITLE=Sammy Kershaw - Business Is Pleasure
DYEAR=1900
DGENRE=
TTITLE0=Business Is Pleasure
TTITLE1=The Flame Has Gone Out
TTITLE2=The Likes Of Texas
TTITLE3=I Just Ended Up Hurting Myself
TTITLE4=I Still Hear Them Playing Our Song
TTITLE5=Let's Go All The Way
TTITLE6=It's Only Make Believe
TTITLE7=She's Gone
TTITLE8=Oklahoma
TTITLE9=That's When I Miss You Most Of All
EXTD=
EXTT0=
EXTT1=
EXTT2=
EXTT3=
EXTT4=
EXTT5=
EXTT6=
EXTT7=
EXTT8=
EXTT9=
PLAYORDER=
